<mxfile host="app.diagrams.net" modified="2024-05-02T20:11:45.341Z" agent="Mozilla/5.0 (Windows NT 10.0; Win64; x64) AppleWebKit/537.36 (KHTML, like Gecko) Chrome/124.0.0.0 Safari/537.36" etag="ziueKXY0OnZnihh52iga" version="24.3.1" type="device">
  <diagram name="Page-1" id="iTZ4CXLqFYNTRl9z-OWY">
    <mxGraphModel dx="1050" dy="557" grid="0" gridSize="10" guides="1" tooltips="1" connect="1" arrows="1" fold="1" page="1" pageScale="1" pageWidth="850" pageHeight="1100" math="0" shadow="0">
      <root>
        <mxCell id="0" />
        <mxCell id="1" parent="0" />
        <mxCell id="Oy-Z1yj6caT7ZtAHe1cn-1" value="" style="triangle;whiteSpace=wrap;html=1;rotation=-90;" parent="1" vertex="1">
          <mxGeometry x="100" y="160" width="110" height="130" as="geometry" />
        </mxCell>
        <mxCell id="Oy-Z1yj6caT7ZtAHe1cn-2" value="&lt;b&gt;SCOPE&lt;/b&gt;&lt;div&gt;&lt;i&gt;(FIXED)&lt;/i&gt;&lt;/div&gt;" style="text;html=1;align=center;verticalAlign=middle;resizable=0;points=[];autosize=1;strokeColor=none;fillColor=none;" parent="1" vertex="1">
          <mxGeometry x="120" y="135" width="70" height="40" as="geometry" />
        </mxCell>
        <mxCell id="Oy-Z1yj6caT7ZtAHe1cn-3" value="&lt;b&gt;TIME&lt;/b&gt;&lt;div&gt;&lt;i&gt;(VARIABLE)&lt;/i&gt;&lt;/div&gt;" style="text;html=1;align=center;verticalAlign=middle;resizable=0;points=[];autosize=1;strokeColor=none;fillColor=none;" parent="1" vertex="1">
          <mxGeometry x="30" y="280" width="90" height="40" as="geometry" />
        </mxCell>
        <mxCell id="Oy-Z1yj6caT7ZtAHe1cn-4" value="&lt;b&gt;COST&lt;/b&gt;&lt;div&gt;&lt;i&gt;(VARIABLE)&lt;/i&gt;&lt;/div&gt;" style="text;html=1;align=center;verticalAlign=middle;resizable=0;points=[];autosize=1;strokeColor=none;fillColor=none;" parent="1" vertex="1">
          <mxGeometry x="170" y="280" width="90" height="40" as="geometry" />
        </mxCell>
        <mxCell id="Oy-Z1yj6caT7ZtAHe1cn-5" value="&lt;b&gt;TRADITIONAL METHODOLOGY&lt;/b&gt;" style="text;html=1;align=center;verticalAlign=middle;resizable=0;points=[];autosize=1;strokeColor=none;fillColor=none;" parent="1" vertex="1">
          <mxGeometry x="55" y="96" width="200" height="30" as="geometry" />
        </mxCell>
        <mxCell id="Oy-Z1yj6caT7ZtAHe1cn-6" value="" style="triangle;whiteSpace=wrap;html=1;rotation=90;" parent="1" vertex="1">
          <mxGeometry x="372" y="160" width="110" height="130" as="geometry" />
        </mxCell>
        <mxCell id="Oy-Z1yj6caT7ZtAHe1cn-7" value="&lt;b&gt;SCOPE&lt;/b&gt;&lt;div&gt;&lt;i&gt;(VARIABLE)&lt;/i&gt;&lt;/div&gt;" style="text;html=1;align=center;verticalAlign=middle;resizable=0;points=[];autosize=1;strokeColor=none;fillColor=none;" parent="1" vertex="1">
          <mxGeometry x="382" y="280" width="90" height="40" as="geometry" />
        </mxCell>
        <mxCell id="Oy-Z1yj6caT7ZtAHe1cn-8" value="&lt;b&gt;TIME&lt;/b&gt;&amp;nbsp;&lt;div&gt;&lt;i&gt;(FIXED)&lt;/i&gt;&lt;/div&gt;" style="text;html=1;align=center;verticalAlign=middle;resizable=0;points=[];autosize=1;strokeColor=none;fillColor=none;" parent="1" vertex="1">
          <mxGeometry x="318" y="130" width="70" height="40" as="geometry" />
        </mxCell>
        <mxCell id="Oy-Z1yj6caT7ZtAHe1cn-9" value="&lt;b&gt;COST&lt;/b&gt;&lt;div&gt;&lt;i&gt;(FIXED)&lt;/i&gt;&lt;/div&gt;" style="text;html=1;align=center;verticalAlign=middle;resizable=0;points=[];autosize=1;strokeColor=none;fillColor=none;" parent="1" vertex="1">
          <mxGeometry x="468" y="130" width="70" height="40" as="geometry" />
        </mxCell>
        <mxCell id="Oy-Z1yj6caT7ZtAHe1cn-10" value="&lt;b&gt;AGILE METHODOLOGY&lt;/b&gt;" style="text;html=1;align=center;verticalAlign=middle;resizable=0;points=[];autosize=1;strokeColor=none;fillColor=none;" parent="1" vertex="1">
          <mxGeometry x="353" y="96" width="160" height="30" as="geometry" />
        </mxCell>
        <mxCell id="Oy-Z1yj6caT7ZtAHe1cn-14" value="" style="verticalLabelPosition=bottom;verticalAlign=top;html=1;shape=mxgraph.basic.partConcEllipse;startAngle=0.25;endAngle=0.1;arcWidth=0.23;fillColor=#000000;" parent="1" vertex="1">
          <mxGeometry x="260" y="190" width="40" height="40" as="geometry" />
        </mxCell>
        <mxCell id="Oy-Z1yj6caT7ZtAHe1cn-18" value="" style="triangle;whiteSpace=wrap;html=1;rotation=-90;fillColor=#000000;" parent="1" vertex="1">
          <mxGeometry x="290" y="200" width="10" height="20" as="geometry" />
        </mxCell>
        <mxCell id="Oy-Z1yj6caT7ZtAHe1cn-19" value="180&lt;a style=&quot;text-decoration-line: none; -webkit-tap-highlight-color: rgba(0, 0, 0, 0.1); outline: 0px; font-family: arial, sans-serif; font-size: small; text-align: left; background-color: rgb(255, 255, 255);&quot; data-ved=&quot;2ahUKEwjvscOq4u-FAxUycfEDHaKcBgAQFnoECBYQAQ&quot; href=&quot;https://www.degreesymbol.net/&quot;&gt;&lt;h3 style=&quot;font-weight: 400; margin: 18px 0px 3px; padding: 5px 0px 0px; font-size: 20px; line-height: 1.3; display: inline-block;&quot; class=&quot;LC20lb MBeuO DKV0Md&quot;&gt;Â°&lt;/h3&gt;&lt;/a&gt;" style="text;html=1;align=center;verticalAlign=middle;whiteSpace=wrap;rounded=0;" parent="1" vertex="1">
          <mxGeometry x="258" y="210" width="60" height="30" as="geometry" />
        </mxCell>
      </root>
    </mxGraphModel>
  </diagram>
</mxfile>
